@startuml
skinparam linetype ortho
skinparam class {
    ArrowColor blue
}
'https://plantuml.com/class-diagram

package OS {
    class SQLite
    class FileSystem
}

package Anki {
    class Collection
}

package NoteSizeAddon {

    package calculator {
        class SizeCalculator #orange {
            size_caches: dict[SizeType, dict[NoteId, SizeBytes]]
            note_files_cache: dict[NoteId, set[MediaFile]]
            note_file_sizes_cache: dict[NoteId, dict[MediaFile, SizeBytes]]
        }
        class SizeFormatter #brown {
            bytes_to_str_cache: dict[SizeBytes, SizeStr]
        }
    }

    package cache {
        class CacheManager
        class CacheHooks
        class ItemIdCache #red {
            id_cache: dict[CardId, NoteId]
            size_str_caches: dict[SizeType, dict[NoteId, SizeStr]]
            file_note_ids_cache: dict[MediaFile, set[NoteId]]
        }
        class MediaCache #green {
            file_sizes_cache: dict[MediaFile, SizeBytes]
        }
        class CacheInitializer
        class CacheStorage
        class SizeStrCache
    }

    package ui {
        together {
                class EditorButtonHooks
            class EditorButtonFormatter
        }
        class BrowserButton
        class DeckBrowserFormatter
        together {
            class ColumnHooks
            class ItemIdSorter
        }
    }
}

BrowserButton --> ItemIdCache #red

EditorButtonHooks --> EditorButtonFormatter

ColumnHooks --> ItemIdCache #red
ColumnHooks --> ItemIdSorter
ColumnHooks --> SizeStrCache

ItemIdSorter --> ItemIdCache #red
ItemIdSorter --> SizeCalculator #orange

CacheInitializer --> CacheManager
CacheInitializer --> CacheStorage

CacheManager --> MediaCache #green
CacheManager --> ItemIdCache #red
CacheManager --> SizeCalculator #orange
CacheManager --> SizeFormatter #brown
CacheManager --> SizeStrCache

CacheHooks --> ItemIdCache #red
CacheHooks --> SizeCalculator #orange

SizeStrCache --> Collection
SizeStrCache --> SizeCalculator
SizeStrCache --> SizeFormatter

Collection --> SQLite

EditorButtonFormatter --> SizeStrCache
EditorButtonFormatter --> SizeCalculator #orange
EditorButtonFormatter --> SizeFormatter #brown

DeckBrowserFormatter --> ItemIdCache #red
DeckBrowserFormatter --> MediaCache #green
DeckBrowserFormatter --> SizeFormatter #brown

SizeCalculator --> Collection
SizeCalculator --> MediaCache #green

CacheStorage --> FileSystem

ItemIdCache --> Collection
ItemIdCache --> SizeCalculator #orange
ItemIdCache --> MediaCache #green

MediaCache --> Collection
MediaCache --> FileSystem

@enduml